<svg xmlns="http://www.w3.org/2000/svg" width="385" height="420" viewBox="0 0 385 420" version="1.1"><path d="M 188 11.208 C 188 18.416, 188 18.416, 183.528 14.028 C 179.118 9.700, 179.028 9.665, 176.995 11.504 C 174.934 13.370, 174.934 13.370, 180.136 18.638 C 185.338 23.906, 185.338 23.906, 177.919 24.203 C 165.589 24.697, 165.802 30, 178.152 30 C 186.437 30, 186.437 30, 180.684 35.814 C 174.932 41.627, 174.931 41.628, 176.994 43.494 C 179.028 45.336, 179.118 45.301, 183.528 40.972 C 188 36.584, 188 36.584, 188 50.292 C 188 57.831, 187.829 64, 187.621 64 C 187.412 64, 184.708 62.840, 181.612 61.423 C 172.294 57.157, 165.500 60.633, 165.500 69.667 C 165.500 78.129, 172.661 81.218, 182.500 77 C 188.405 74.469, 188 74.321, 188 79 C 188 83, 188 83, 127.474 83 C 66.948 83, 66.948 83, 67.224 98.250 C 67.587 118.334, 78 123.940, 78 104.052 C 78 94, 78 94, 117.500 94 C 139.225 94, 157 94.228, 157 94.507 C 157 97.004, 123.645 131.402, 111 141.946 C 89.439 159.924, 44.753 183, 31.499 183 C 30.429 183, 30.108 183.684, 30.442 185.250 C 30.705 186.488, 31.425 190.106, 32.040 193.292 C 32.940 197.948, 33.487 198.991, 34.830 198.610 C 35.748 198.349, 39.875 197.211, 44 196.081 C 87.111 184.273, 143.824 141.680, 174.822 97.831 C 181.316 88.644, 188 92.302, 188 105.043 C 188 119.460, 183.136 126.282, 173.564 125.294 C 166.016 124.515, 161.627 129.395, 163.427 136.566 C 164.015 138.909, 168.873 142, 171.968 142 C 174.304 142, 173.007 137.219, 170.500 136.589 C 167.613 135.865, 167.167 132.976, 169.571 130.571 C 171.616 128.527, 172.046 128.576, 175.610 131.250 C 188.511 140.930, 188 139.811, 188 158.415 C 188 175.406, 188 175.406, 184.250 171.852 C 176.527 164.534, 170.168 162.832, 166.025 166.975 C 160.250 172.750, 163.909 182, 171.968 182 C 174.304 182, 173.007 177.219, 170.500 176.589 C 167.613 175.865, 167.167 172.976, 169.571 170.571 C 171.993 168.150, 172.668 168.488, 183.304 177.462 C 187.521 181.020, 191.192 212, 187.397 212 C 187.065 212, 184.598 210.026, 181.914 207.613 C 174.389 200.847, 167.784 200.650, 164.453 207.091 C 161.488 212.825, 163.870 217.879, 170.250 219.388 C 174.053 220.287, 174.264 215.897, 170.500 214.182 C 166.622 212.415, 167.754 207, 172.001 207 C 188.379 207, 195.977 257.677, 181.250 268.683 C 177.537 271.458, 154.545 289.765, 130.156 309.365 C 105.766 328.965, 85.466 344.788, 85.044 344.527 C 84.623 344.267, 79.603 336.178, 73.889 326.552 C 61.550 305.765, 64.135 306.552, 54 320.500 C 45.644 332, 45.644 332, 38.606 332 C 31.568 332, 31.568 332, 36.968 326.532 C 42.305 321.129, 42.346 321.040, 40.499 318.999 C 38.630 316.934, 38.630 316.934, 33.315 322.183 C 28 327.432, 28 327.432, 28 320.216 C 28 313, 28 313, 25 313 C 22 313, 22 313, 22 320.719 C 22 328.437, 22 328.437, 16.186 322.684 C 10.372 316.931, 10.372 316.931, 8.502 318.998 C 6.653 321.040, 6.694 321.128, 12.032 326.532 C 17.432 332, 17.432 332, 9.716 332 C 2 332, 2 332, 2 335 C 2 338, 2 338, 9.716 338 C 17.432 338, 17.432 338, 12.032 343.468 C 6.694 348.872, 6.653 348.960, 8.502 351.002 C 10.372 353.069, 10.372 353.069, 16.186 347.316 C 22 341.563, 22 341.563, 22 349.281 C 22 357, 22 357, 25 357 C 28 357, 28 357, 28 349.784 C 28 342.568, 28 342.568, 33.315 347.817 C 38.630 353.066, 38.630 353.066, 40.499 351.001 C 42.346 348.960, 42.305 348.871, 36.968 343.468 C 31.568 338, 31.568 338, 39.252 338 C 46.937 338, 46.937 338, 50.218 333.539 C 56.933 324.411, 68.376 326.692, 75.466 338.573 C 82.031 349.573, 82.314 348.262, 71.585 356.500 C 68.004 359.250, 65.057 361.837, 65.037 362.250 C 65.016 362.663, 85.426 363, 110.392 363 C 155.784 363, 155.784 363, 153.915 366.667 C 150.604 373.161, 154.523 380, 161.556 380 C 166.457 380, 166.067 375.577, 161.102 374.851 C 154.598 373.899, 157.245 365.796, 164.257 365.195 C 167.787 364.893, 179 367.590, 179 368.742 C 179 369.072, 178.243 370.179, 177.318 371.202 C 175.719 372.968, 175.880 373.309, 180.530 378.030 C 185.425 383, 185.425 383, 178.212 383 C 171 383, 171 383, 171 386 C 171 389, 171 389, 178.716 389 C 186.432 389, 186.432 389, 181.032 394.468 C 175.699 399.868, 175.655 399.961, 177.498 401.998 C 179.364 404.059, 179.364 404.059, 183.682 399.822 C 188 395.584, 188 395.584, 188 406.292 C 188 417, 188 417, 193.500 417 C 199 417, 199 417, 199 406.797 C 199 396.594, 199 396.594, 203.010 400.510 C 210.529 407.852, 213.433 402.026, 206.003 394.503 C 200.568 389, 200.568 389, 208.351 389 C 220.138 389, 220.011 383.809, 208.203 383 C 200.906 382.500, 200.906 382.500, 205.940 377.551 C 210.974 372.601, 210.974 372.601, 208.934 370.430 C 206.531 367.872, 211.080 365.370, 220.071 364.305 C 227.966 363.370, 233.058 371.689, 226.080 374.122 C 220.535 376.055, 220.917 380.259, 226.523 378.995 C 233.242 377.479, 235.754 371.901, 232.648 365.389 C 231.032 362, 231.032 362, 275.516 362 C 299.982 362, 319.982 361.663, 319.961 361.250 C 319.939 360.837, 316.777 358.062, 312.934 355.081 C 309.090 352.101, 306.070 349.366, 306.223 349.003 C 313.956 330.596, 329.228 323.074, 336.760 333.962 C 339.500 337.924, 339.500 337.924, 346.462 337.962 C 353.425 338, 353.425 338, 348.712 342.784 C 343.455 348.122, 343.296 348.565, 345.685 351.204 C 347.309 352.999, 347.562 352.876, 352.685 347.817 C 358 342.568, 358 342.568, 358 349.784 C 358 357, 358 357, 361 357 C 364 357, 364 357, 364 349.784 C 364 342.568, 364 342.568, 369.280 347.782 C 374.559 352.996, 374.559 352.996, 376.778 350.778 C 378.996 348.559, 378.996 348.559, 373.782 343.280 C 368.568 338, 368.568 338, 375.784 338 C 383 338, 383 338, 383 335 C 383 332, 383 332, 375.784 332 C 368.568 332, 368.568 332, 373.782 326.720 C 378.996 321.441, 378.996 321.441, 376.778 319.222 C 374.559 317.004, 374.559 317.004, 369.280 322.218 C 364 327.432, 364 327.432, 364 320.216 C 364 313, 364 313, 361 313 C 358 313, 358 313, 358 320.216 C 358 327.432, 358 327.432, 352.685 322.183 C 347.562 317.124, 347.309 317.001, 345.685 318.796 C 343.296 321.435, 343.455 321.878, 348.712 327.216 C 353.425 332, 353.425 332, 347.390 332 C 341.356 332, 341.356 332, 333.005 320.507 C 328.412 314.185, 324.446 309.221, 324.192 309.474 C 323.939 309.728, 318.954 317.894, 313.116 327.621 C 307.277 337.348, 302.175 345.350, 301.777 345.403 C 285.486 347.588, 199.107 260.076, 199.058 241.337 C 198.999 218.922, 204.358 207.111, 214.628 207.019 C 219.334 206.977, 220.501 212.937, 215.995 214.001 C 213.707 214.541, 213.413 215.089, 213.850 218 C 214.138 219.920, 219.111 218.980, 221.545 216.545 C 230.030 208.061, 216.021 196.937, 207.186 205.142 C 198.202 213.486, 199 214.299, 199 196.801 C 199 180.222, 207.405 166.655, 215.845 169.610 C 219.874 171.021, 219.994 174.798, 216.057 176.285 C 214.120 177.016, 213.155 177.961, 213.480 178.809 C 213.766 179.554, 214 180.585, 214 181.101 C 214 182.793, 219.451 180.855, 221.750 178.345 C 225.805 173.918, 224.254 167.840, 218.452 165.415 C 212.809 163.058, 210.807 163.612, 205.500 169 C 198.821 175.781, 199 176.095, 199 157.646 C 199 140.236, 207.203 126.584, 215.845 129.610 C 219.874 131.021, 219.994 134.798, 216.057 136.285 C 214.120 137.016, 213.155 137.961, 213.480 138.809 C 213.766 139.554, 214 140.585, 214 141.101 C 214 142.793, 219.451 140.855, 221.750 138.345 C 228.371 131.116, 216.260 118.930, 208.992 125.508 C 204.542 129.534, 199 118.475, 199 105.571 C 199 93.020, 211.262 87.548, 217.619 97.262 C 246.257 141.026, 326.393 198.428, 359.647 198.997 C 359.907 199.002, 362 186.393, 362 184.825 C 362 183.782, 359.457 182.617, 353.795 181.065 C 324.403 173.010, 293.585 154.190, 266.158 127.547 C 256.043 117.722, 236 95.834, 236 94.615 C 236 94.277, 255.125 94, 278.500 94 C 321 94, 321 94, 321 104 C 321 114, 321 114, 326.500 114 C 332 114, 332 114, 332 98.500 C 332 83, 332 83, 265.500 83 C 199 83, 199 83, 199 80 C 199 76.443, 198.992 76.445, 204 79 C 211.759 82.958, 219.262 80.452, 220.573 73.463 C 222.491 63.239, 216.013 58.651, 205.250 62.611 C 199 64.910, 199 64.910, 199 51.252 C 199 37.594, 199 37.594, 202.820 41.324 C 210.134 48.466, 212.211 42.802, 204.968 35.468 C 199.568 30, 199.568 30, 207.284 30 C 215 30, 215 30, 215 27 C 215 24, 215 24, 207.788 24 C 200.575 24, 200.575 24, 205.288 19.216 C 210.389 14.036, 210.817 12.923, 208.455 10.963 C 207.150 9.880, 206.299 10.279, 202.955 13.544 C 199 17.406, 199 17.406, 199 10.703 C 199 4, 199 4, 193.500 4 C 188 4, 188 4, 188 11.208 M 171.655 65.829 C 166.166 71.894, 172.237 76.141, 180.977 72.351 C 187.218 69.644, 187.218 69.644, 181.859 66.869 C 175.485 63.569, 173.851 63.402, 171.655 65.829 M 205.586 67.540 C 197.921 70.722, 197.998 70.458, 203.867 73.433 C 211.808 77.456, 216 76.571, 216 70.871 C 216 65.022, 213.544 64.236, 205.586 67.540 M 169.500 291.640 C 147.979 309.084, 147.943 303.965, 169.743 326.577 C 187.986 345.500, 187.986 345.500, 187.993 330.047 C 188 314.594, 188 314.594, 184.208 318.297 C 180.012 322.394, 178.857 322.737, 176.957 320.449 C 175.860 319.127, 176.466 318.091, 181.051 313.449 C 186.432 308, 186.432 308, 178.716 308 C 171 308, 171 308, 171 305 C 171 302, 171 302, 178.716 302 C 186.432 302, 186.432 302, 181.032 296.532 C 175.699 291.132, 175.655 291.039, 177.498 289.002 C 179.364 286.941, 179.364 286.941, 183.682 291.178 C 188 295.416, 188 295.416, 188 286.208 C 188 281.144, 187.887 277.011, 187.750 277.025 C 187.613 277.039, 179.400 283.615, 169.500 291.640 M 199 286.625 C 199 295.416, 199 295.416, 203.318 291.178 C 207.636 286.941, 207.636 286.941, 209.502 289.002 C 211.345 291.039, 211.301 291.132, 205.968 296.532 C 200.568 302, 200.568 302, 208.284 302 C 216 302, 216 302, 216 305 C 216 308, 216 308, 208.284 308 C 200.568 308, 200.568 308, 205.817 313.315 C 213.053 320.642, 210.304 325.632, 202.975 318.475 C 199 314.594, 199 314.594, 199 330.037 C 199 345.480, 199 345.480, 217.918 326.582 C 235.647 308.871, 228.209 288.907, 199.879 278.167 C 199.396 277.983, 199 281.790, 199 286.625 M 135.136 319.175 C 124.589 327.711, 123.941 328.434, 126.116 329.239 C 132.013 331.420, 133.892 337.108, 130 341 C 125.837 345.163, 118 342.170, 118 336.417 C 118 333.114, 118.251 332.980, 105.692 343 C 95.038 351.500, 95.038 351.500, 118.019 351.768 C 191.894 352.631, 189.299 353.750, 166.799 330.739 C 146.500 309.978, 146.500 309.978, 135.136 319.175 M 220.537 330.963 C 209.568 341.943, 200.797 351.055, 201.046 351.213 C 207.487 355.288, 288.907 349.663, 283.742 345.500 C 266.527 331.625, 267.840 332.515, 268.506 335.168 C 269.434 338.865, 265.736 343, 261.500 343 C 257.214 343, 253.582 338.880, 254.486 335.043 C 255.210 331.971, 258.499 329, 261.175 329 C 262.442 329, 259.254 325.835, 252.109 320 C 246.047 315.050, 240.951 311, 240.785 311 C 240.618 311, 231.506 319.983, 220.537 330.963" stroke="none" fill="#a70000" fill-rule="evenodd"/><path d="M 32.035 224.934 C 30.219 228.328, 30.699 257.556, 32.602 259.459 C 35.028 261.886, 56.791 261.287, 58.388 258.750 C 60.684 255.103, 58.054 253.527, 49.145 253.210 C 41 252.919, 41 252.919, 41 240.182 C 41 224.699, 36.373 216.829, 32.035 224.934 M 201.035 224.934 C 199.237 228.293, 199.695 258.552, 201.571 260.429 C 205.969 264.826, 209 260.978, 209 251 C 209 236.105, 216.310 234.667, 216.792 249.468 C 217.160 260.766, 220.006 264.851, 224.429 260.429 C 233.481 251.376, 221.676 228.287, 210.934 234.035 C 209.146 234.992, 209 234.706, 209 230.235 C 209 223.411, 203.728 219.902, 201.035 224.934 M 234.200 225.200 C 233.540 225.860, 233 227.830, 233 229.578 C 233 231.713, 232.300 233.221, 230.867 234.172 C 228.478 235.758, 228.988 240, 231.567 240 C 232.695 240, 233 241.759, 233 248.277 C 233 260.157, 236.702 263.904, 245.554 260.982 C 250.516 259.344, 250.308 254.674, 245.250 254.187 C 240.922 253.769, 239.993 240.424, 244.250 239.820 C 245.898 239.585, 246.500 238.831, 246.500 237 C 246.500 235.367, 245.720 234.158, 244.250 233.513 C 242.843 232.896, 242 231.653, 242 230.197 C 242 224.940, 237.404 221.996, 234.200 225.200 M 280.975 226.565 C 280.439 227.976, 280 230.015, 280 231.096 C 280 232.178, 279.325 233.322, 278.500 233.638 C 277.675 233.955, 277 235.305, 277 236.638 C 277 237.972, 277.675 239.322, 278.500 239.638 C 279.628 240.071, 280 241.886, 280 246.958 C 280 259.031, 283.606 263.470, 291.736 261.406 C 298.342 259.729, 298.452 254, 291.878 254 C 289 254, 289 254, 289 247 C 289 240.708, 289.199 240, 290.965 240 C 293.854 240, 295.415 236.558, 293.427 234.569 C 292.563 233.706, 291.214 233, 290.429 233 C 289.479 233, 289 231.893, 289 229.700 C 289 223.816, 282.923 221.442, 280.975 226.565 M 63.035 234.934 C 58.731 242.976, 62.947 263.712, 68.383 261.235 C 71.354 259.882, 72.556 236.956, 69.800 234.200 C 67.963 232.363, 64.192 232.772, 63.035 234.934 M 76.006 234.492 C 74.268 236.587, 83.028 259.409, 86.227 261.121 C 91.226 263.797, 104.880 239.175, 100.994 234.492 C 97.854 230.710, 94.751 232.995, 91.587 241.419 C 89.951 245.774, 88.456 248.924, 88.264 248.419 C 82.283 232.632, 79.847 229.864, 76.006 234.492 M 111.030 234.279 C 99.285 240.222, 102.433 258.592, 115.685 261.445 C 124.254 263.289, 135.407 254.743, 129.250 251.050 C 127.583 250.050, 127.583 249.950, 129.250 248.950 C 139.140 243.018, 121.628 228.917, 111.030 234.279 M 137.200 234.200 C 135.256 236.144, 135.571 258.429, 137.571 260.429 C 141.865 264.722, 145 260.635, 145 250.743 C 145 242.722, 146.258 240, 149.964 240 C 152.472 240, 153 241.915, 153 251.010 C 153 258.983, 154.236 262, 157.500 262 C 163.187 262, 164.170 240.118, 158.694 235.412 C 155.594 232.747, 148.355 232.045, 146.200 234.200 C 145.267 235.133, 144.733 235.133, 143.800 234.200 C 143.140 233.540, 141.655 233, 140.500 233 C 139.345 233, 137.860 233.540, 137.200 234.200 M 171.743 234.717 C 165.696 238.566, 164.413 250.881, 169.448 256.734 C 171.768 259.431, 171.768 259.431, 169.634 260.491 C 164.715 262.932, 169.386 271, 175.718 271 C 185.507 271, 195.687 235.429, 186.250 234.201 C 176.771 232.967, 174.357 233.053, 171.743 234.717 M 254.500 234.208 C 246.178 238.980, 248.668 246.331, 259.890 250.120 C 266.450 252.335, 267.451 254.290, 262.289 254.805 C 259.983 255.035, 258.737 254.482, 257.222 252.555 C 253.631 247.990, 248.075 250.426, 250.064 255.692 C 252.617 262.448, 268.171 263.877, 272.463 257.749 C 276.755 251.622, 274.175 246.815, 264.869 243.594 C 261.542 242.442, 258.748 241.050, 258.660 240.500 C 258.363 238.644, 262.800 238.870, 264.658 240.805 C 268.379 244.684, 273 243.933, 273 239.450 C 273 234.346, 260.457 230.791, 254.500 234.208 M 303.299 234.901 C 292.700 241.558, 296.126 259.245, 308.463 261.559 C 321.794 264.060, 330.866 247.372, 321.645 237.310 C 317.352 232.625, 308.725 231.492, 303.299 234.901 M 330.667 233.667 C 328.844 235.489, 329.973 259.915, 331.928 260.961 C 336.595 263.459, 339 259.438, 339 249.135 C 339 242.194, 340 240, 343.165 240 C 345.957 240, 347 243.252, 347 251.956 C 347 259.708, 347.108 260.092, 349.617 261.235 C 357.448 264.803, 358.946 238.253, 351.150 234.080 C 348.545 232.686, 342.443 232.693, 339.827 234.093 C 338.350 234.883, 337.483 234.883, 336.693 234.093 C 335.487 232.887, 331.713 232.620, 330.667 233.667 M 176.597 242.165 C 174.459 245.217, 174.581 249.261, 176.895 252.119 C 181.231 257.474, 188.022 250.007, 184.854 243.368 C 183.045 239.577, 178.839 238.964, 176.597 242.165 M 307.035 241.934 C 303.406 248.715, 308.080 257.143, 313.500 253.592 C 315.948 251.988, 316.544 250.008, 316.080 245.012 C 315.611 239.950, 309.255 237.787, 307.035 241.934" stroke="none" fill="#000000" fill-rule="evenodd"/></svg>